<svg t="1706258225042" class="icon" viewBox="0 0 1024 1024" version="1.1" xmlns="http://www.w3.org/2000/svg" p-id="53921" width="200" height="200"><path d="M377.685333 938.24h-98.56L426.666667 682.666667l73.898666 42.666666zM738.56 938.666667H640l-122.282667-211.797334 73.898667-42.666666z" fill="#0d0d0d" p-id="53922"></path><path d="M426.666667 444.330667l-97.834667 97.834666-60.330667-60.330666L426.666667 323.669333l170.666666 170.666667 97.834667-97.834667 60.330667 60.330667L597.333333 614.997333z" fill="#0d0d0d" p-id="53923"></path><path d="M896 170.666667a42.666667 42.666667 0 0 1 42.666667 42.666666v512a42.666667 42.666667 0 0 1-42.666667 42.666667H128a42.666667 42.666667 0 0 1-42.666667-42.666667V213.333333a42.666667 42.666667 0 0 1 42.666667-42.666666h768z m-42.666667 85.333333H170.666667v426.666667h682.666666V256z" fill="#0d0d0d" p-id="53924"></path><path d="M341.333333 85.333333h85.333334v170.666667H341.333333zM597.333333 85.333333h85.333334v170.666667h-85.333334z" fill="#0d0d0d" p-id="53925"></path></svg>