<svg t="1706260826200" class="icon" viewBox="0 0 1024 1024" version="1.1" xmlns="http://www.w3.org/2000/svg" p-id="69554" id="mx_n_1706260826202" data-spm-anchor-id="a313x.search_index.0.i42.75d53a81DeEHcQ" width="200" height="200"><path d="M851.072 107.008c51.264 0 92.864 39.04 92.928 87.104v635.776c0 48.064-41.6 87.04-92.928 87.104H172.928c-51.264 0-92.864-39.04-92.928-87.104V194.112c0-48.064 41.6-87.04 92.928-87.104h678.144M863.616 32H160.384C71.808 32 0 99.328 0 182.4v659.2c0 83.072 71.808 150.4 160.384 150.4h703.232c88.576 0 160.384-67.328 160.384-150.4V182.4C1024 99.264 952.192 32 863.616 32z" fill="#0d0d0d" p-id="69555" data-spm-anchor-id="a313x.search_index.0.i43.75d53a81DeEHcQ" class=""></path><path d="M366.08 147.712c75.328 0 113.024 51.648 113.024 155.008 0 51.456-10.24 90.88-31.04 118.4-20.48 27.328-49.92 40.96-88.384 40.96-77.184 0-115.776-50.752-115.776-152.32 0-52.736 10.368-92.864 31.168-120.512 20.992-27.712 51.328-41.536 91.008-41.536z m-3.2 51.072c-30.912 0-46.336 36.416-46.336 109.248-0.128 68.608 15.04 102.848 45.44 102.848 29.504 0 44.352-35.392 44.352-106.048s-14.528-106.048-43.52-106.048zM584.96 456.96h205.056v-53.12h-66.688V147.712l-140.224 26.56v54.208l69.056-13.952V403.84H584.96v53.12zM472.32 851.712H267.2v-53.056h67.2V609.28l-69.12 14.016V568.96l140.352-26.496v256.128H472.32v52.992zM681.6 537.216c75.392 0 113.152 51.648 113.152 155.008 0 51.456-10.368 90.88-30.976 118.4-20.48 27.328-49.92 40.96-88.448 40.96-77.248 0-115.84-50.688-115.84-152.32 0-52.736 10.496-92.864 31.168-120.512 21.12-27.712 51.392-41.536 91.008-41.536z m-3.2 51.072c-30.784 0-46.272 36.416-46.272 109.248 0 68.608 15.168 102.848 45.44 102.848 29.568 0 44.352-35.392 44.352-106.048s-14.528-106.048-43.52-106.048z" fill="#0d0d0d" p-id="69556"></path></svg>