<svg t="1706261217059" class="icon" viewBox="0 0 1024 1024" version="1.1" xmlns="http://www.w3.org/2000/svg" p-id="73638" width="200" height="200"><path d="M621.663612 804.607497a36.479977 36.479977 0 0 1-36.479978-36.543977V365.631771a36.479977 36.479977 0 1 1 73.087955 0v402.239749a36.671977 36.671977 0 0 1-36.607977 36.735977z m-219.327863 0a36.479977 36.479977 0 0 1-36.607978-36.543977V365.631771a36.479977 36.479977 0 1 1 73.151955 0v402.239749a36.671977 36.671977 0 0 1-36.543977 36.735977z m585.215634-621.759611h-182.847886V109.695931C804.703497 49.151969 755.935528 0 695.775565 0H329.183794c-60.543962 0-109.695931 49.151969-109.695931 109.695931v73.151955H36.575977a36.479977 36.479977 0 1 0 0 73.087954H987.615383a36.479977 36.479977 0 1 0 0-73.087954zM292.575817 109.695931c0-20.031987 16.51199-36.543977 36.479977-36.543977h366.719771a35.839978 35.839978 0 0 1 35.711978 36.543977v73.151955H292.639817V109.695931zM768.09552 1023.99936H256.22384a109.759931 109.759931 0 0 1-109.695932-109.695931V365.247772a36.479977 36.479977 0 1 1 73.151955 0v549.055657c0 20.223987 16.51199 36.543977 36.543977 36.543977h512.12768a36.479977 36.479977 0 0 0 36.543977-36.543977V366.655771a36.479977 36.479977 0 1 1 73.151954 0v547.647658A110.143931 110.143931 0 0 1 768.09552 1023.99936z" fill="#0d0d0d" p-id="73639"></path></svg>