<svg t="1706585604796" class="icon" viewBox="0 0 1024 1024" version="1.1" xmlns="http://www.w3.org/2000/svg" p-id="19410" width="200" height="200"><path d="M512 0C229.2224 0 0 229.2224 0 512s229.2224 512 512 512 512-229.2224 512-512S794.7776 0 512 0z m134.9632 929.4336h-3.9424a21.9648 21.9648 0 0 1-16.3328-5.9904 21.9648 21.9648 0 0 1-5.9904-15.872v-60.0064c0.3072-19.968 0.4096-40.0896 0.4096-60.416 0-14.848-2.1504-29.5936-6.4-43.8784a78.1312 78.1312 0 0 0-23.1424-37.2736 345.344 345.344 0 0 0 87.04-20.1216 163.6864 163.6864 0 0 0 100.3008-105.4208 287.232 287.232 0 0 0 12.6976-90.8288c0.2048-21.504-3.584-42.8544-11.1104-62.976a165.888 165.888 0 0 0-33.8432-54.784c3.1232-8.0384 5.4784-16.384 6.8608-24.8832a152.576 152.576 0 0 0-1.6896-58.7264 225.8432 225.8432 0 0 0-9.4208-32.5632 12.4416 12.4416 0 0 0-4.7616-0.8704h-4.6592c-9.7792 0.1024-19.456 1.7408-28.7744 4.7616a220.16 220.16 0 0 0-29.952 11.1104c-9.6768 4.4032-19.0976 9.216-28.2624 14.6432a495.7696 495.7696 0 0 0-24.4224 15.4112 408.6272 408.6272 0 0 0-219.4432 0 576.3072 576.3072 0 0 0-24.4224-15.4112 257.024 257.024 0 0 0-28.672-14.6432 192.6656 192.6656 0 0 0-30.0032-11.1104 94.0032 94.0032 0 0 0-28.2624-4.7616h-4.7104a12.3392 12.3392 0 0 0-4.6592 0.8704c-4.0448 10.5984-7.3216 21.504-9.8816 32.5632a161.3312 161.3312 0 0 0-1.2288 58.7264c1.4336 8.4992 3.6352 16.8448 6.7584 24.8832a165.888 165.888 0 0 0-33.792 54.784c-7.5264 20.1216-11.264 41.472-11.1616 62.976a295.68 295.68 0 0 0 12.4416 90.4192c7.7312 24.064 20.6336 46.08 37.7344 64.7168 17.7152 17.9712 39.0656 31.9488 62.5152 41.1136a327.8848 327.8848 0 0 0 86.784 20.3264c-8.3456 7.4752-14.8992 16.6912-19.3536 26.9824a127.5392 127.5392 0 0 0-8.5504 31.744c-15.616 7.5264-32.768 11.4688-50.0736 11.5712a76.2368 76.2368 0 0 1-45.3632-12.9024 123.8528 123.8528 0 0 1-32.2048-35.072 114.8416 114.8416 0 0 0-28.2624-30.976 78.3872 78.3872 0 0 0-18.432-10.24 51.1488 51.1488 0 0 0-32.5632-2.9696 17.5616 17.5616 0 0 0-5.5808 2.56 5.0688 5.0688 0 0 0-2.56 4.2496c0.4096 4.096 2.56 7.8848 5.9904 10.2912 3.9936 3.1232 7.3216 5.632 9.8816 7.3216l1.28 0.8704c5.6832 4.4032 11.1616 9.1648 16.2816 14.1824 4.8128 4.1984 9.1648 8.9088 12.8 14.1312 3.8912 5.0176 7.168 10.4448 9.8816 16.2304 3.1232 5.6832 6.4512 12.288 9.8816 19.7632 8.0384 20.1728 22.2208 37.2736 40.6528 48.8448 19.4048 10.3936 41.0624 15.5136 62.976 15.0016 7.4752 0 14.9504-0.4608 22.3232-1.3312 7.3216-1.1776 14.6432-2.4064 21.9136-3.8912v74.3936a21.3504 21.3504 0 0 1-22.6304 22.272h-2.7136a438.8352 438.8352 0 1 1 269.8752 0v0.2048h-0.0512z" fill="#0d0d0d" p-id="19411"></path></svg>