<svg t="1706186964688" class="icon" viewBox="0 0 1024 1024" version="1.1" xmlns="http://www.w3.org/2000/svg" p-id="6264" id="mx_n_1706186964689" width="200" height="200"><path d="M956.374463 786.594465l-102.14423-126.657209a51.092577 51.092577 0 0 1-11.23341-32.175841V409.671616c0.133-139.45593-93.908442-261.406974-228.81167-296.7339 0.266001-3.23293 0.266001-6.476092 0-9.709022 0-56.412589-45.741872-102.14423-102.14423-102.14423-56.412589 0-102.154461 45.731642-102.154461 102.14423-0.266001 3.23293-0.266001 6.476092 0 9.709022-135.312459 34.938156-229.84498 156.991508-229.824518 296.7339V627.761415a51.042446 51.042446 0 0 1-11.24364 32.175841l-102.144231 126.657209c-12.225797 15.479189-14.45611 36.605775-5.729243 54.284584a51.067 51.067 0 0 0 46.591028 28.451833h809.010131c19.530582-0.092077 37.311699-11.315256 45.782795-28.912219a51.064954 51.064954 0 0 0-5.954321-53.824198zM471.179139 103.228694c0-14.599341 7.785633-28.083525 20.430892-35.38831a40.884292 40.884292 0 0 1 40.861784 0 40.851554 40.851554 0 0 1 20.430893 35.38831H471.179139zM192.819742 777.407214l48.013108-61.292677a144.014771 144.014771 0 0 0 31.152763-89.386432V409.671616c-0.306924-111.986252 85.969348-205.178539 197.658907-213.485943 5.606474-0.51154 11.243641-0.51154 16.860346 0H537.576981c5.606474-0.51154 11.243641-0.51154 16.850115 0 111.689559 8.307403 197.965831 101.49969 197.658907 213.485943V627.761415c0.245539 32.104226 11.212948 63.205835 31.152762 88.363353l48.013108 60.269597-638.432131 1.012849z m421.365411 153.216345H409.886462c-16.420422 0-31.592687 8.757558-39.808013 22.978359a45.946488 45.946488 0 0 0 0 45.96695 45.959788 45.959788 0 0 0 39.808013 22.978359h204.298691c25.382596 0 45.96695-20.584354 45.96695-45.966949 0-25.372365-20.584354-45.956719-45.96695-45.956719z m0 0" fill="#0d0d0d" p-id="6265"></path></svg>