<svg t="1706261558061" class="icon" viewBox="0 0 1024 1024" version="1.1" xmlns="http://www.w3.org/2000/svg" p-id="87727" width="200" height="200"><path d="M512 64c247.424 0 448 200.576 448 448 0 112.192-41.248 214.752-109.376 293.344l103.872 103.904a32 32 0 1 1-45.248 45.248l-103.904-103.872A446.272 446.272 0 0 1 512 960C295.904 960 115.552 807.04 73.344 603.456h182.496l3.872-0.256a32 32 0 0 0 22.208-13.216l2.048-3.296 32.512-60.096 84.64 157.888 1.984 3.2c14.624 21.344 47.872 16.864 56.352-7.52l1.088-3.84 54.656-243.872 29.312 44.32 2.24 3.008a32 32 0 0 0 53.024-35.04l-1.856-3.2-70.752-107.168-2.24-3.04c-15.712-18.88-46.528-13.28-54.624 9.888l-1.056 3.776-52.352 233.44-72.064-134.4-2.176-3.52a32.032 32.032 0 0 0-51.968-0.128l-2.176 3.52-51.744 95.52H64.832C64.288 530.4 64 521.248 64 512 64 264.576 264.576 64 512 64z" fill="#0d0d0d" p-id="87728"></path></svg>