<svg t="1706531524985" class="icon" viewBox="0 0 1024 1024" version="1.1" xmlns="http://www.w3.org/2000/svg" p-id="31866" width="200" height="200"><path d="M480 192a64 64 0 0 0-64-64H192a64 64 0 0 0-64 64v223.744a64 64 0 0 0 64 64h224a64 64 0 0 0 64-64V192zM896.48 608.256a64 64 0 0 0-64-64h-224a64 64 0 0 0-64 64V832a64 64 0 0 0 64 64h224a64 64 0 0 0 64-64v-223.744zM869.952 479.68a32 32 0 0 1-33.728-27.936l-0.032-0.256a324.48 324.48 0 0 0-8-35.424 365.856 365.856 0 0 0-35.808-84.096c-32.8-55.744-88.544-113.824-184.864-135.04-17.248-3.84-29.76-19.648-27.552-37.184 2.208-17.536 18.24-30.08 35.552-26.56 109.888 22.464 178.56 85.024 220.448 147.84v-57.28a32 32 0 1 1 64 0v224a32 32 0 0 1-30.016 31.936zM191.744 572A32 32 0 0 0 128 576v224a32 32 0 1 0 64 0v-57.28c41.92 62.816 110.56 125.376 220.448 147.84 17.28 3.552 33.376-9.024 35.552-26.56 2.208-17.536-10.304-33.344-27.552-37.152-96.32-21.248-152.064-79.36-184.864-135.072a365.76 365.76 0 0 1-42.304-110.816 201.504 201.504 0 0 1-1.504-8.672v-0.288z" fill="#0d0d0d" p-id="31867"></path></svg>